<svg id="flash0.ai" xmlns="http://www.w3.org/2000/svg" viewBox="0 0 722.93 314.7"><defs><style>.cls-1{fill:#fff;}.cls-2{fill:#cf5550;}.cls-3{fill:#d0985d;}.cls-4{fill:#ffef83;}.cls-5{fill:#57cb66;}.cls-6{fill:#83d4ff;}.cls-7{fill:#b651cc;}</style></defs><title>Logo</title><path class="cls-1" d="M715.7,58.7l-22.25,22q-16.9,15.95-7.65,30.5,54.45,76.75,29,122.8-22.55,46.25-122.5,60.35l-.2.1H592q-329,31.9-466.3-30.25l1.2,31.9-102,18.6L0,41.8,113.55,20.95l1.6,34.75L150.45,0,213.9,64.65l.55-51.05,75-8.5L289,14.25l92.6-7.85L498,8.65l-2.6,11.55,40.2-17.65,16.8,53,42.4-36.25L639.4,72q18.9-6.8,45.7-9.6Zm-38.6,58.65q-15.3-21.5,9-44.45-107.25,11.45-78.65,87.95a.82.82,0,0,1,.1.35l8.2-12.55,12.7,18.7,11.6-16.9,12.1,16.45,8.4-18.9L676,168.3,684,148l11.5,19.45,4.9-10.85A256.44,256.44,0,0,0,677.1,117.35ZM662.45,164.6,654,183.7l-13.7-18.6-11.8,17.25L616,164l-5.75,8.9a21.7,21.7,0,0,1-3,12.65q-8.35,13.65-40.55,15.85Q317.65,220.8,143.1,158l75.5-73.35L152.25,17,106.1,89.85,103.45,33.6,11.5,50.5,34.25,302.15l81.65-14.9-1.45-40.5q131.6,70.5,476.45,37,149.85-21,114-116.4l-8.3,18.7-11-18.8L678.4,185.4ZM529,17,484.15,36.8l27.2,72.5-23.2,85.6q25.1-.65,51-2.25l17.3-63.45L606.6,91.75a.09.09,0,0,1,.08-.1h0L628.45,75.4l-34.9-41.15L547.2,73.9ZM380.9,61l24,.2L384.45,193.35q27.15,1.6,55.4,1.9L454,61.65,475.2,61l9.55-42L387,17ZM302.45,241.75a130,130,0,0,0-5.4,12.6q4.65-1.25,9.25-2.1Q304.15,246.65,302.45,241.75Zm31.6-26q20.9-2,42.2-3.6-1.4,10.55-2.45,21.35-4.7.45-9.35,1.3-.55,20.6.6,47.1-11.25,1.6-22.1,3.6-.4-26.35.45-48-5.1.55-10.2,1.4.2-10.95.85-23.2Zm-31.4-30.2q29.25,4,60,6.4l-7.9-129.2,21-3L381,17,283.5,25.3,282,69.55l24-2.25Zm74,34.7q21-2.15,42.2-3.4-1.25,10.6-2.55,20.7-4.65.45-9.35.85-.2,22.35,1.15,48-11.35.65-22.3,1.6-.55-24.75.1-47.85-5.3.75-10.2,1.1.3-9.5.95-21.05Zm148.8-3.35a19.22,19.22,0,0,1,8.3-4.6,29.82,29.82,0,0,1,10-1.6,42.3,42.3,0,0,1,9.8.75,30.34,30.34,0,0,1,9,2.55q-2.45,9-4.5,18.1a52.57,52.57,0,0,0-6-2,28.57,28.57,0,0,0-4.9-1.15l-4-.55a8.72,8.72,0,0,0-3.4.25,6.21,6.21,0,0,0-2.7,1.15,2.19,2.19,0,0,0-.85,2.25q-.1.5.65,1a9.82,9.82,0,0,1,1,.4q1.4.35,2.7.55a19.4,19.4,0,0,1,2.2.45l1.6.2a15.31,15.31,0,0,1,2.25.65q1.6.5,3.8,1.25,2.25,1.3,4.9,2.55a19.15,19.15,0,0,1,4.7,3.4,22.72,22.72,0,0,1,3.4,4.9,30.6,30.6,0,0,1,2.1,7.45,38.25,38.25,0,0,1-.65,11.6,21.74,21.74,0,0,1-4.75,8.6,22.3,22.3,0,0,1-8.3,5.5,54.49,54.49,0,0,1-11.15,2,30.17,30.17,0,0,1-5.75-.35q-3.1-.6-5.85-1.25-3.1-1.3-5.85-2.15-3.1-1.45-5.3-2.65,1.8-10.3,3.9-19.75a20.16,20.16,0,0,1,3,1.25,28.08,28.08,0,0,0,3.65,1.7q1.95.55,4.15,1.4a19.94,19.94,0,0,0,4.7.5,8.51,8.51,0,0,0,4.35-1,2.88,2.88,0,0,0,1.5-3,4.16,4.16,0,0,0-1.6-2.7,23.48,23.48,0,0,0-2.75-1.35,29.76,29.76,0,0,0-3.65-1.4q-2.1-.65-4.35-1.5a31.67,31.67,0,0,1-4.45-2.55,16.76,16.76,0,0,1-4.15-3.15,16.58,16.58,0,0,1-3-4.5,10.43,10.43,0,0,1-1.35-5.75,22.61,22.61,0,0,1,1.9-10.1A15.35,15.35,0,0,1,525.45,216.9ZM490.1,239.35q7.2-.1,14.45-.6-1,6.55-1.7,13.9a120.42,120.42,0,0,0-13.2.75,28.16,28.16,0,0,0,.25,4.9q11.15-1,22.6-1.8,1.1,12.65,2.15,25.6-21.35.85-43.15,1.3-4-37-2.35-67.65,21.7-.6,43.25-1.25-1.15,10.3-2.45,20.6-9.75.25-19.65.35ZM448.2,214.7q-2,24.35-2,47.85,9.45-2.3,19.25-4.2,1.4,13.3,2.8,26l-42.1,2.45a537.83,537.83,0,0,1-1.6-69.45q11.9-1.55,23.65-2.7ZM278.2,17.05,225,23.15l-1.7,71.95h-.1l-1.9,75.15q24.1,5.75,49.5,10.2Zm-23,176.7a9.24,9.24,0,0,0,1.6.45,17.17,17.17,0,0,0,1.6.85,14.4,14.4,0,0,1,3.6,2.65,18.81,18.81,0,0,1,4,4.45,25.43,25.43,0,0,1,2.2,6.7,27.35,27.35,0,0,1-1.25,9,46.39,46.39,0,0,1-6.4,11.25,31.5,31.5,0,0,1,9.25,9.6,24.83,24.83,0,0,1,3,8.25,25.63,25.63,0,0,1-1.2,8,64.32,64.32,0,0,1-3.25,7.55,41.11,41.11,0,0,0-3.4,5.4,6.43,6.43,0,0,0-1.6,2l-1.1,1a32.41,32.41,0,0,0-3.8,2q-2.9.75-7.55,1.9a66,66,0,0,1-12.35,1.3,139.66,139.66,0,0,1-18-1.6q-.55-33.9-.35-79.85a94.69,94.69,0,0,1,18-1.8,36.61,36.61,0,0,1,11.35.2,15.11,15.11,0,0,1,5.7.65Zm-14.85,34.1a5,5,0,0,0,4-.85,6.74,6.74,0,0,0,2.35-2.55,24.93,24.93,0,0,0,1-2.8,8.66,8.66,0,0,1,.3-1.6,7.41,7.41,0,0,0,.15-1.7,8.59,8.59,0,0,0-.65-2.2,2.89,2.89,0,0,0-2-1.7q-1.7-.65-4.75,1.25Q240.35,222,240.35,227.85Zm11,17.55a3.45,3.45,0,0,0-1.9-1.7,5.12,5.12,0,0,0-3.7-.45,14.53,14.53,0,0,0-6.2,2.25q.55,4.15,1,8.7a14,14,0,0,0,6.55-.55,8.51,8.51,0,0,0,3.65-2.2,7.28,7.28,0,0,0,1-2.15,6.92,6.92,0,0,0,.2-1v-1a6.71,6.71,0,0,0-.65-1.95Zm41.9,24q-1.5,7.45-3,14.45-11.8-3.6-23.6-7.75,16.8-36,34.8-76.55,19,39.55,39.2,68.35-12.1,6-24.3,12.25-3.55-6.2-6.7-12.45l-16.45,1.65Z"/><path class="cls-2" d="M662.45,164.6l15.9,20.75,7.25-18.15,11,18.8,8.3-18.7q35.8,95.35-114.1,116.4-344.8,33.55-476.35-37l1.5,40.5-81.7,14.9L11.45,50.5l92-16.9,2.65,56.25L152.25,17,218.6,84.65,143.1,158q174.55,62.8,423.55,43.35,32.2-2.2,40.6-15.85a21.69,21.69,0,0,0,3-12.65L616,164l12.45,18.4,11.8-17.25L654,183.7Zm-328.4,51.1q-.65,12.25-.85,23.1,5.1-.85,10.2-1.4-.85,21.7-.45,48,10.85-2,22.1-3.6-1.15-26.5-.6-47.1,4.65-.85,9.35-1.3,1.05-10.8,2.45-21.35Q355,213.7,334.05,215.7Zm-31.6,26q1.7,4.9,3.85,10.55-4.6.85-9.25,2.1a129.94,129.94,0,0,1,5.4-12.6ZM448.2,214.6q-11.75,1.2-23.75,2.75a537.64,537.64,0,0,0,1.6,69.45l42.1-2.45q-1.4-12.75-2.8-26-9.75,1.9-19.2,4.15,0-23.5,2-47.85Zm41.9,24.75q.1-1.9.2-3.9,9.9-.1,19.65-.35,1.3-10.3,2.45-20.6-21.55.65-43.25,1.25-1.6,30.6,2.3,67.6,21.8-.45,43.15-1.3-1.05-13-2.15-25.6-11.45.75-22.6,1.8a28.16,28.16,0,0,1-.25-4.9,120.43,120.43,0,0,1,13.2-.75q.65-7.35,1.7-13.9Q497.3,239.2,490.1,239.35ZM525.4,217a15.33,15.33,0,0,0-5.65,7.3,22.59,22.59,0,0,0-1.9,10.1,10.43,10.43,0,0,0,1.35,5.75,16.58,16.58,0,0,0,3,4.5,16.79,16.79,0,0,0,4.15,3.15,31.67,31.67,0,0,0,4.45,2.55q2.25.85,4.35,1.5a29.9,29.9,0,0,1,3.65,1.4,23.33,23.33,0,0,1,2.75,1.35,4.16,4.16,0,0,1,1.6,2.7,2.88,2.88,0,0,1-1.5,3,8.5,8.5,0,0,1-4.35,1,19.93,19.93,0,0,1-4.7-.5q-2.2-.85-4.15-1.4a28.08,28.08,0,0,1-3.7-1.7,20.16,20.16,0,0,0-3-1.25q-2.1,9.45-3.9,19.75,2.2,1.2,5.3,2.65,2.75.85,5.85,2.15,2.75.65,5.85,1.25a30.18,30.18,0,0,0,5.75.35,54.48,54.48,0,0,0,11.15-2,22.31,22.31,0,0,0,8.3-5.5,21.74,21.74,0,0,0,4.75-8.6,38.18,38.18,0,0,0,.65-11.6,30.54,30.54,0,0,0-2.1-7.45,22.76,22.76,0,0,0-3.4-4.9,19.17,19.17,0,0,0-4.7-3.4q-2.65-1.25-4.9-2.55-2.2-.75-3.8-1.25a15.3,15.3,0,0,0-2.25-.65l-1.6-.2q-1-.25-2.2-.45t-2.7-.55a9.72,9.72,0,0,0-1-.4q-.75-.55-.65-1a2.19,2.19,0,0,1,.85-2.25,6.21,6.21,0,0,1,2.7-1.15,8.72,8.72,0,0,1,3.4-.25l4,.55a28.56,28.56,0,0,1,4.9,1.15q2.65.75,6,2,2-9,4.5-18.1a30.35,30.35,0,0,0-9-2.55,42.3,42.3,0,0,0-9.8-.75,29.79,29.79,0,0,0-10,1.6,19.18,19.18,0,0,0-8.25,4.55Zm-148.75,3.3q-.65,11.55-1,21,4.9-.35,10.2-1.1-.65,23.1-.1,47.85,11-1,22.3-1.6-1.35-25.7-1.15-48,4.7-.4,9.35-.85,1.3-10.1,2.55-20.7-21.2,1.15-42.15,3.3Zm-83.45,49.1,16.5-1.7q3.15,6.25,6.7,12.45,12.2-6.3,24.3-12.25-20.15-28.75-39.25-68.3-18,40.6-34.8,76.55,11.8,4.15,23.6,7.75Q291.7,276.85,293.2,269.35Zm-41.9-24a6.73,6.73,0,0,1,.65,1.9v1a6.94,6.94,0,0,1-.2,1,7.27,7.27,0,0,1-1,2.15,8.51,8.51,0,0,1-3.65,2.2,14,14,0,0,1-6.55.55q-.45-4.55-1-8.7a14.53,14.53,0,0,1,6.2-2.25,5.13,5.13,0,0,1,3.7.45A3.45,3.45,0,0,1,251.3,245.35Zm-11-17.55q0-5.85.35-12.15,3-1.9,4.75-1.25a2.89,2.89,0,0,1,2,1.7,8.6,8.6,0,0,1,.65,2.2,7.41,7.41,0,0,1-.15,1.7,8.66,8.66,0,0,0-.3,1.6,25,25,0,0,1-1,2.8,6.74,6.74,0,0,1-2.35,2.55,5,5,0,0,1-3.9.9Zm14.9-34.15a15.08,15.08,0,0,0-5.75-.65,36.61,36.61,0,0,0-11.35-.2,94.69,94.69,0,0,0-18,1.8q-.2,46,.35,79.85a139.85,139.85,0,0,0,18,1.6,65.87,65.87,0,0,0,12.35-1.3q4.65-1.15,7.55-1.9a32.33,32.33,0,0,1,3.8-2,10.8,10.8,0,0,0,1.1-1,6.45,6.45,0,0,1,1.6-2,40.88,40.88,0,0,1,3.4-5.4,64.32,64.32,0,0,0,3.25-7.55,25.6,25.6,0,0,0,1.2-8,24.83,24.83,0,0,0-3-8.25,31.51,31.51,0,0,0-9.25-9.6,46.39,46.39,0,0,0,6.4-11.25,27.35,27.35,0,0,0,1.25-9,25.42,25.42,0,0,0-2.2-6.7,18.81,18.81,0,0,0-4-4.45,14.38,14.38,0,0,0-3.6-2.65,17,17,0,0,1-1.6-.85,9.48,9.48,0,0,1-1.45-.45Z"/><path class="cls-3" d="M278.2,17l-7.45,163.35q-25.4-4.45-49.5-10.2L223.15,95h.1L225,23Z"/><path class="cls-4" d="M302.65,185.5l3.4-118.2-24,2.25,1.5-44.25L381,17l-5.2,42.75-21,3,7.85,129.15Q331.9,189.55,302.65,185.5Z"/><path class="cls-5" d="M380.9,60.95l6-44,97.8,1.95-9.55,42-21.25.7-14.1,133.7q-28.25-.3-55.4-1.9L405,61.15Z"/><path class="cls-6" d="M529,17l18.2,56.9,46.35-39.65,34.9,41.1L606.75,91.6a.09.09,0,0,0-.1.08.09.09,0,0,0,0,0l-50.2,37.5L539.2,192.65q-25.95,1.6-51,2.25l23.15-85.55-27.2-72.5Z"/><path class="cls-7" d="M677.1,117.35a256.47,256.47,0,0,1,23.35,39.25l-4.85,10.85L684.1,148,676,168.3,660.6,148l-8.4,18.9-12.1-16.45-11.65,16.9-12.7-18.7-8.2,12.55a.8.8,0,0,0-.1-.35q-28.6-76.5,78.65-87.9Q661.8,95.9,677.1,117.35Z"/></svg>